HIERARCHY
ROOT Hips
{
	OFFSET 0.00000 0.00000 0.00000
	CHANNELS 6 Xposition Yposition Zposition Zrotation Yrotation Xrotation 
	JOINT LHipJoint
	{
		OFFSET 0 0 0
		CHANNELS 3 Zrotation Yrotation Xrotation
		JOINT LeftHip
		{
			OFFSET 1.58895 -1.83665 0.71753
			CHANNELS 3 Zrotation Yrotation Xrotation
			JOINT LeftKnee
			{
				OFFSET 2.50528 -6.88321 0.00000
				CHANNELS 3 Zrotation Yrotation Xrotation
				JOINT LeftAnkle
				{
					OFFSET 2.63244 -7.23257 0.00000
					CHANNELS 3 Zrotation Yrotation Xrotation
					JOINT LeftToe
					{
						OFFSET 0.23691 -0.65090 1.72750
						CHANNELS 3 Zrotation Yrotation Xrotation
						End Site
						{
							OFFSET 0.00000 -0.00000 0.92561
						}
					}
				}
			}
		}
	}
	JOINT RHipJoint
	{
		OFFSET 0 0 0
		CHANNELS 3 Zrotation Yrotation Xrotation
		JOINT RightHip
		{
			OFFSET -1.51435 -1.83665 0.71753
			CHANNELS 3 Zrotation Yrotation Xrotation
			JOINT RightKnee
			{
				OFFSET -2.54551 -6.99375 0.00000
				CHANNELS 3 Zrotation Yrotation Xrotation
				JOINT RightAnkle
				{
					OFFSET -2.66027 -7.30903 0.00000
					CHANNELS 3 Zrotation Yrotation Xrotation
					JOINT RightToe
					{
						OFFSET -0.22981 -0.63138 2.03959
						CHANNELS 3 Zrotation Yrotation Xrotation
						End Site
						{
							OFFSET -0.00000 -0.00000 1.07060
						}
					}
				}
			}
		}
	}
	JOINT lowerback
	{
		OFFSET 0 0 0
		CHANNELS 3 Zrotation Yrotation Xrotation
		JOINT Chest
		{
			OFFSET -0.02651 1.86275 -0.11152
			CHANNELS 3 Zrotation Yrotation Xrotation
			JOINT Chest2
			{
				OFFSET 0.01019 1.86224 0.04087
				CHANNELS 3 Zrotation Yrotation Xrotation
				JOINT lowerneck
				{
					OFFSET 0 0 0
					CHANNELS 3 Zrotation Yrotation Xrotation
					JOINT Neck
					{
						OFFSET -0.01926 1.80512 0.08867
						CHANNELS 3 Zrotation Yrotation Xrotation
						JOINT Head
						{
							OFFSET 0.05516 1.76451 -0.38475
							CHANNELS 3 Zrotation Yrotation Xrotation
							End Site
							{
								OFFSET 0.01592 1.82587 -0.14001
							}
						}
					}
				}
				JOINT LeftCollar
				{
					OFFSET 0 0 0
					CHANNELS 3 Zrotation Yrotation Xrotation
					JOINT LeftShoulder
					{
						OFFSET 3.47116 1.51376 0.14491
CHANNELS 3 Zrotation Xrotation Yrotation
						JOINT LeftElbow
						{
OFFSET 0 -4.780950 0.000000
CHANNELS 3 Zrotation Xrotation Yrotation
							JOINT LeftWrist
							{
OFFSET 0 -3.586150 -0.000000
CHANNELS 3 Zrotation Xrotation Yrotation
								JOINT lhand
								{
									OFFSET 0 0 0
CHANNELS 3 Zrotation Xrotation Yrotation
									JOINT LFingers
									{
OFFSET 0 -0.659810 0.000000
CHANNELS 3 Zrotation Xrotation Yrotation
										End Site
										{
OFFSET 0 -0.531960 0.000000
										}
									}
								}
								JOINT LThumb
								{
OFFSET 0 0.000000 0.000000
CHANNELS 3 Zrotation Xrotation Yrotation
									End Site
									{
OFFSET 0 -0.540080 0.540080
									}
								}
							}
						}
					}
				}
				JOINT RightCollar
				{
					OFFSET 0 0 0
					CHANNELS 3 Zrotation Yrotation Xrotation
					JOINT RightShoulder
					{
						OFFSET -3.31725 1.61216 0.35156
CHANNELS 3 Zrotation Xrotation Yrotation
						JOINT RightElbow
						{
OFFSET 0 -4.489130 0.000000
CHANNELS 3 Zrotation Xrotation Yrotation
							JOINT RightWrist
							{
OFFSET 0 -3.705100 0.000000
CHANNELS 3 Zrotation Xrotation Yrotation
								JOINT rhand
								{
									OFFSET 0 0 0
CHANNELS 3 Zrotation Xrotation Yrotation
									JOINT RFingers
									{
OFFSET 0 -0.449140 0.000000
CHANNELS 3 Zrotation Xrotation Yrotation
										End Site
										{
OFFSET 0 -0.362110 0.000000
										}
									}
								}
								JOINT RThumb
								{
OFFSET 0 0.000000 0.000000
CHANNELS 3 Zrotation Xrotation Yrotation
									End Site
									{
OFFSET 0 -0.367630 0.367630
									}
								}
							}
						}
					}
				}
			}
		}
	}
}
MOTION
Frames: 4
Frame Time: 0.008333333333333333
-0.600000 18.533600 5.998300 -2.587700 -1.708300 -2.631200 0.000000 0.000000 0.000000 -11.800800 -3.399200 -0.325400 1.759500 8.346100 23.770200 1.607700 1.110800 -24.394900 8.687800 -16.602600 -55.004100 0.000000 0.000000 0.000000 15.381700 -6.201400 10.283300 0.000000 0.000000 -0.000000 -0.621100 -2.461100 -15.981100 -0.075800 1.775900 -4.886600 2.064500 0.233300 7.891400 0.103700 0.532300 -2.004300 -1.123800 0.182200 -6.513900 -1.374800 -2.150900 -10.672000 2.412400 -3.402300 25.516200 0.681900 -1.445300 9.909900 -0.000000 0.000000 0.000000 -1.818400 12.972200 -21.863200 21.335200 -32.217500 6.227700 18.747600 -6.067600 30.477800 0.000000 0.000000 0.000000 -7.125000 0.000000 0.000000 -7.141800 -1.662000 -7.403100 -0.000000 0.000000 0.000000 3.123400 18.074600 15.221600 -24.347600 -35.529700 -7.907600 -5.901100 19.802600 33.726800 0.000000 0.000000 0.000000 7.125000 0.000000 -0.000000 31.371500 61.039200 -12.980000
-0.622430 18.539615 6.003902 -2.064937 -1.884425 -2.461892 0.000000 0.000000 0.000000 -12.315108 -3.333353 -0.362776 1.711124 8.236525 23.434766 1.586491 1.330728 -24.320662 8.693329 -16.606285 -55.023302 0.000000 0.000000 0.000000 14.906207 -5.952405 10.122595 0.000000 0.000000 0.000000 -0.619802 -2.468764 -15.969560 -0.071392 1.723303 -4.741633 1.142828 0.343558 7.595962 0.058690 0.577143 -2.005633 -0.656033 0.240881 -6.351396 -1.401157 -2.141783 -10.750989 2.429830 -3.388572 25.541082 0.693217 -1.438491 9.934629 0.000000 0.000000 0.000000 -1.794800 12.935820 -22.067512 21.338310 -32.221127 6.229359 18.781480 -6.230274 30.394754 0.000000 0.000000 0.000000 -7.125000 0.000000 0.000000 -7.112566 -1.584369 -7.362885 0.000000 0.000000 0.000000 3.130664 18.029790 15.285810 -24.232975 -35.409654 -7.841154 -7.287429 19.904501 33.471540 0.000000 0.000000 0.000000 7.125000 0.000000 0.000000 29.710726 61.159419 -12.305044
-0.628273 18.542613 6.004184 -1.873132 -1.968881 -2.380426 0.000000 0.000000 0.000000 -12.515938 -3.344111 -0.397601 1.695845 8.201444 23.327516 1.584637 1.396283 -24.332715 8.659088 -16.583191 -54.903409 0.000000 0.000000 0.000000 14.728286 -5.833925 10.041537 0.000000 0.000000 0.000000 -0.620179 -2.481644 -15.981287 -0.069853 1.704737 -4.690259 0.830116 0.374730 7.509031 0.036770 0.585324 -2.012295 -0.503425 0.256781 -6.311032 -1.452001 -2.138366 -10.828403 2.534869 -3.402723 25.617125 0.736187 -1.436713 9.980306 0.000000 0.000000 0.000000 -1.876402 12.899625 -21.885224 21.360503 -32.246749 6.241161 18.696023 -6.000273 30.265785 0.000000 0.000000 0.000000 -7.125000 0.000000 0.000000 -7.146568 -1.438114 -7.380798 0.000000 0.000000 0.000000 3.143570 18.008334 15.088377 -24.148990 -35.321410 -7.792525 -7.109474 20.084772 33.618594 0.000000 0.000000 0.000000 7.125000 0.000000 0.000000 30.038696 61.241496 -12.513927
-0.625562 18.543912 6.002568 -1.826938 -1.977139 -2.333098 0.000000 0.000000 0.000000 -12.579039 -3.374917 -0.388191 1.680453 8.166190 23.220066 1.578326 1.444550 -24.304171 8.628353 -16.562536 -54.795786 0.000000 0.000000 0.000000 14.677554 -5.806266 9.985276 0.000000 0.000000 0.000000 -0.618086 -2.505932 -15.970002 -0.075121 1.767948 -4.864784 0.782091 0.357601 7.512256 0.034143 0.557603 -2.031854 -0.475677 0.244817 -6.334367 -1.421951 -2.124708 -10.848613 2.511175 -3.384534 25.639690 0.724712 -1.427840 9.990887 0.000000 0.000000 0.000000 -2.094747 12.862899 -21.314624 21.390887 -32.281760 6.257360 18.498878 -5.383847 30.201786 0.000000 0.000000 0.000000 -7.125000 0.000000 0.000000 -7.252725 -1.337138 -7.479610 0.000000 0.000000 0.000000 3.170464 18.042116 15.010070 -24.190087 -35.364611 -7.816301 -6.615227 20.217766 33.615641 0.000000 0.000000 0.000000 7.125000 0.000000 0.000000 30.537589 61.118715 -12.654549
